<svg xmlns="http://www.w3.org/2000/svg" fill='#ffb7ae' viewBox="0 0 90.52 99.92"><path d="M83.2 70.37v-.05c2.87-1.32 6.88-4.67 7.29-6.4-.23-.07-3.13 2.11-6.21 4a19.44 19.44 0 0 0 .66-1.9c2.16-1.67 5.13-4.84 5.26-6.67-.72.46-2.91 2.79-4.74 4.41.11-.67.2-1.35.25-2 1.46-1.7 3.57-4.76 3.57-6.76-.25 0-2.18 2.66-3.49 4.43v-.71c0-.39 0-.83-.06-1.29.76-1.5 2.48-5.09 2.36-6.71a16.61 16.61 0 0 0-2.56 4.11c-.25-2.64-.69-5.4-1.48-6.51-.42 1.33.64 6.79.59 10.25a25.14 25.14 0 0 1-1.21 7.78s-1 2.53-1 2.52c-4 7.63-6.09 8.69-23.81 18.25a2.08 2.08 0 0 0-.3.13c-3.05 1.65-6.58 3.55-10.64 5.77a3.38 3.38 0 0 0-4.91 0c-4-2.21-7.58-4.12-10.63-5.76l-.29-.13C14.16 77.58 12.12 76.52 8.07 68.89c0 0-1-2.5-1-2.52a25.14 25.14 0 0 1-1.21-7.78c0-3.46 1-8.92.59-10.25-.75 1.11-1.2 3.87-1.45 6.51a16.61 16.61 0 0 0-2.56-4.11c-.11 1.62 1.61 5.26 2.37 6.71 0 .46 0 .9-.07 1.29v.71C3.43 57.68 1.5 55 1.25 55c0 2 2.11 5 3.53 6.73a19.6 19.6 0 0 0 .26 2C3.2 62.17 1 59.84.3 59.38c.12 1.83 3.09 5 5.25 6.67A19.44 19.44 0 0 0 6.21 68c-3.08-1.92-6-4.1-6.21-4 .42 1.73 4.43 5.08 7.3 6.4v.05c.33.62.65 1.2 1 1.75-3.93-1.49-6.87-3.45-7.88-3.66.32.88 3.42 3.84 9.15 5.54.38.52.78 1 1.2 1.49-5.56-.9-8-2.31-9.19-2.42.84 1.83 7.17 4.18 11.1 4.28.47.41 1 .81 1.52 1.22-5 .12-10.51-1.19-10.73-1 .36.75 5.83 3.37 12.93 2.55l1.29.82c-2.43.1-5 .64-6.33.73-2.57.16-4.4-.12-5.27.11 4.67 2.7 11.82.08 14.56.93l1.35.77a45.94 45.94 0 0 0-8 1.17 43.58 43.58 0 0 0-4.62 1C13 87 22.49 84.22 25.71 85.6l1.56.85c-4.87 0-11.2 1.15-13.11 2.52.43.16 4.78-.44 9.17-.66 3.58-.17 7.23-.06 8.37.56l5.19 2.83c-.93-.22-1.92-.43-3-.64C22.39 88.88 9.65 96 8.64 99.18a58.38 58.38 0 0 1 5.59-3.37 7.86 7.86 0 0 0-1.44 3.92c.52-.45 2.39-3.59 3.67-5 .79-.36 1.59-.68 2.41-1a8.7 8.7 0 0 0-2.24 5c.94-.84 3.24-4.91 4.82-5.86.79-.21 1.59-.39 2.4-.53a10.35 10.35 0 0 0-3.62 5.46c1.45-1.1 3.28-4.07 6.6-5.83.67 0 1.35-.08 2-.07a11.74 11.74 0 0 0-5 5.54c1.59-1 4.1-4.19 8.14-5.36.67.07 1.35.17 2.05.29A12.73 12.73 0 0 0 28 97.71c1.95-.89 5.12-4.18 9-4.61l1.53.45c-2.7 1-5.57 3.31-6.42 4.86 2.5-.94 6.45-4.28 9.85-3.56a3.31 3.31 0 0 0-.06.55 3.48 3.48 0 0 0 .25 1.25c-.89.65-1.76 1.32-2.66 2.06a.68.68 0 0 0 .86 1.05l.06-.05c.93-.76 1.76-1.36 2.53-1.88a3.35 3.35 0 0 0 2.36 1 3.39 3.39 0 0 0 2.38-1c.76.52 1.6 1.13 2.53 1.89l.06.05a.68.68 0 0 0 .86-1.05c-.9-.74-1.77-1.42-2.67-2.07a3.38 3.38 0 0 0 .24-1.24 3.31 3.31 0 0 0 0-.55c3.4-.73 7.35 2.62 9.86 3.56-.85-1.55-3.72-3.89-6.42-4.86l1.54-.45c3.87.43 7.05 3.72 9 4.61a12.68 12.68 0 0 0-6.08-5.26c.7-.12 1.38-.22 2-.29 4.05 1.17 6.55 4.39 8.14 5.36a11.69 11.69 0 0 0-5-5.54c.69 0 1.37 0 2 .07 3.32 1.76 5.15 4.73 6.6 5.83a10.29 10.29 0 0 0-3.62-5.46c.81.14 1.62.32 2.41.53 1.58 1 3.87 5 4.82 5.86a8.8 8.8 0 0 0-2.25-5c.82.3 1.62.62 2.42 1 1.28 1.4 3.15 4.54 3.66 5a7.94 7.94 0 0 0-1.43-3.92 58.24 58.24 0 0 1 5.58 3.37c-1-3.23-13.75-10.3-25.26-8.12-1.07.21-2.06.42-3 .64l5.19-2.83c1.14-.62 4.8-.73 8.38-.56 4.38.22 8.73.82 9.17.66-1.91-1.37-8.25-2.57-13.11-2.52l1.55-.85C68 84.22 77.57 87 81.13 85.66a44 44 0 0 0-4.63-1 45.8 45.8 0 0 0-8-1.17l1.35-.77c2.74-.85 9.89 1.77 14.57-.93-.88-.23-2.71 0-5.27-.11-1.37-.09-3.91-.63-6.34-.73.46-.28.89-.56 1.3-.82 7.09.82 12.57-1.8 12.92-2.55-.22-.16-5.72 1.15-10.73 1 .55-.41 1.05-.81 1.52-1.22 3.93-.1 10.26-2.45 11.1-4.28-1.23.11-3.63 1.52-9.19 2.42.42-.48.82-1 1.2-1.49 5.73-1.7 8.83-4.66 9.15-5.54-1 .21-3.95 2.17-7.88 3.58.35-.48.67-1.05 1-1.68zM45.25 97.44a2 2 0 1 1 2-2 2 2 0 0 1-2 2zM15.56 13.37a26.72 26.72 0 0 1-1.44 7.24 49.3 49.3 0 0 0-2 9.28.28.28 0 0 1 0 .09c-.08.85-.13 1.74-.15 2.66H10.8a.69.69 0 0 0-.52.24.68.68 0 0 0-.15.55 8 8 0 0 0 3.49 5.12 2 2 0 0 0-.78 1.59 2 2 0 0 0 .58 1.4 84.08 84.08 0 0 0-2.79 15.93 18.84 18.84 0 0 0 9.65 18.13l25 13.8 25-13.8a18.83 18.83 0 0 0 9.64-18.13 83.21 83.21 0 0 0-2.78-15.93 2.09 2.09 0 0 0 .58-1.44 2 2 0 0 0-.78-1.55 8 8 0 0 0 3.49-5.12.72.72 0 0 0-.15-.55.69.69 0 0 0-.52-.24h-1.21c0-.92-.06-1.81-.15-2.66v-.09a49.3 49.3 0 0 0-2-9.28 26.72 26.72 0 0 1-1.4-7.24c0-4.17 1.68-6.57 4.71-6.57h.68V0H10.12v6.8h.68c3.03 0 4.76 2.4 4.76 6.57zM11.68 34h12.75A5.57 5.57 0 0 1 19 38.08h-1.85A5.6 5.6 0 0 1 11.68 34zm33.57-15.41A7.07 7.07 0 0 0 52 13.37a21.11 21.11 0 0 1 14.3 19.27h-1.1a.69.69 0 0 0-.52.24.68.68 0 0 0-.15.55A8 8 0 0 0 68 38.55a2 2 0 0 0-.78 1.59 2 2 0 0 0 .58 1.41 83.18 83.18 0 0 0-2.36 12.9l-4.79-2.74-4.46 2.47-10-5.71v-8l.75-.74a.45.45 0 0 0 .12-.4l-.36-2.2a1 1 0 0 0-.26-.5l-.44-.46a7.88 7.88 0 0 1 1.86.15c.78.22 1.39 1.62.32 4A2.83 2.83 0 0 0 49.6 37l.18.11c.77.54.53 2.89-.29 4.21a2.89 2.89 0 0 0 1.65-3.12l.15.15c.54.85 0 3.12-.89 4.25a3.19 3.19 0 0 0 1.91-2.89l.19.29c.42.83-.9 3.44-1.3 4a3.83 3.83 0 0 0 2.06-2.46c0 .09.08.19.11.28.29.89-.54 2.58-1.16 3.5.46 0 1.28-.87 1.69-1.89a18.38 18.38 0 0 1 .51 2.47c1.26-4-2.3-10.57-7.77-10.72a11.27 11.27 0 0 1 1.36-.73 3.12 3.12 0 0 1 3.6 2.63 2.71 2.71 0 0 0-1.6-3.4c1.14-.32 2.89 1.64 3.45 3.31a3.67 3.67 0 0 0-1.38-3.59c1.37.07 2.55 2 3 4a3.73 3.73 0 0 0-.82-3.77l.53.15c1.07.49 1.71 2.62 1.9 4.22a4.08 4.08 0 0 0-.14-3.5l.48.26c1 .81 1.23 2.74 1.34 3.55a3.66 3.66 0 0 0 .15-2.52 11 11 0 0 1 2.1 2.21c-.14-2.08-4.25-6-9.39-5.55a3.41 3.41 0 0 0-3.18-1l.07-.09c1.71-1.25 4.19-.17 4.79.46 0-.93-1.59-2.05-3.37-1.91l.18-.16a6 6 0 0 1 4.72.81c-.08-.63-1.41-1.85-3.25-1.94l.41-.27c1.31-.35 3.7.65 4.41 1.13-.21-.75-1.61-1.69-3-2l.11-.06h.06c1.19-.46 3.22.33 4.11.76a3.8 3.8 0 0 0-2.42-1.49 14.39 14.39 0 0 1 3.2-.79c-1.8-.66-9.35 1-12.38 7.46v-1a4.81 4.81 0 0 1 2.71-4 3 3 0 0 0-2.72 1.26v-.33c.13-1.29 1.91-2.94 2.33-3.4a4.18 4.18 0 0 0-2.28 1.36c0-1.21 1.32-2.93 1.92-3.56a3.55 3.55 0 0 0-2 1.41v-.14c0-.91.86-2 1.28-3.16a4.89 4.89 0 0 0-1.35 1.35 10.05 10.05 0 0 0-.32-2.5 9.12 9.12 0 0 0-.36 2.49 4.57 4.57 0 0 0-1.34-1.34c.45 1.2 1.31 2.2 1.31 3.14v.12a3.58 3.58 0 0 0-2-1.4 7.24 7.24 0 0 1 1.91 3.51v.06a4.14 4.14 0 0 0-2.26-1.35c.4.46 2.15 2.07 2.24 3.33v.37a3 3 0 0 0-2.71-1.26 4.84 4.84 0 0 1 2.71 3.93v1.1c-3-6.41-10.58-8.11-12.38-7.45a14.13 14.13 0 0 1 3.2.79 3.75 3.75 0 0 0-2.41 1.49c.88-.43 2.91-1.22 4.1-.76h.07l.1.06c-1.35.29-2.74 1.23-3 2 .74-.51 3.13-1.5 4.44-1.13.14.09.28.17.41.27-1.84.09-3.17 1.31-3.25 1.94a6 6 0 0 1 4.72-.81l.19.16c-1.79-.14-3.36 1-3.38 1.91.61-.63 3.09-1.71 4.79-.46l.07.09a3.42 3.42 0 0 0-3.18 1c-5.07-.45-9.17 3.47-9.32 5.55A11.65 11.65 0 0 1 32 35.79a3.72 3.72 0 0 0 .15 2.52c.11-.81.38-2.74 1.35-3.55l.5-.26a4.12 4.12 0 0 0-.14 3.5c.19-1.6.84-3.73 1.9-4.22l.53-.15a3.73 3.73 0 0 0-.82 3.77c.43-2 1.62-3.93 3-4a3.64 3.64 0 0 0-1.39 3.6c.55-1.67 2.31-3.63 3.44-3.31A2.71 2.71 0 0 0 39 37.08a3.13 3.13 0 0 1 3.61-2.63 13.19 13.19 0 0 1 1.32.77c-5.47.15-9 6.76-7.78 10.72a18.38 18.38 0 0 1 .51-2.47c.41 1 1.23 1.91 1.69 1.89-.62-.92-1.44-2.61-1.16-3.5 0-.09.07-.19.11-.28A3.87 3.87 0 0 0 39.34 44c-.41-.58-1.72-3.19-1.3-4 .05-.1.12-.19.18-.29a3.19 3.19 0 0 0 1.91 2.89c-.89-1.13-1.43-3.4-.89-4.25l.15-.15A2.91 2.91 0 0 0 41 41.34c-.81-1.32-1-3.67-.28-4.21l.18-.11a2.83 2.83 0 0 0 1.42 3.35c-1.06-2.41-.46-3.81.32-4a7.93 7.93 0 0 1 1.86-.15l-.47.47a1 1 0 0 0-.25.49l-.37 2.21a.46.46 0 0 0 .13.4l.74.74v8l-10.11 5.55-4-2.31-.32-.19-.34.19L25 54.25a83 83 0 0 0-2.33-12.71 2.09 2.09 0 0 0 .58-1.44 2 2 0 0 0-.78-1.55A8 8 0 0 0 26 33.43a.68.68 0 0 0-.15-.55.69.69 0 0 0-.52-.24h-1.1a21.11 21.11 0 0 1 14.26-19.27 7.06 7.06 0 0 0 6.76 5.22zM39.79 13a20.55 20.55 0 0 1 10.93 0 5.64 5.64 0 0 1-10.93 0zm6.38 49.58V50l15.17 8.14a.45.45 0 0 0 .44-.79l-4.42-2.52L60.67 53l4.67 2.49c-.23 2.22-.42 4.58-.57 7.06zm18.46 3.17c-.06 1.63-.1 3.29-.1 5H52l-5.83-3.25v-1.77zM46.29 34.34a10.68 10.68 0 0 1 .55-1.13c.54-.82 1.93-1.2 3.64-.64a10.63 10.63 0 0 0-4.19 1.77zm-2 0a10.59 10.59 0 0 0-4.18-1.77c1.71-.56 3.09-.18 3.64.64.15.37.33.79.49 1.13zM25.73 62.56c-.13-2.4-.32-4.69-.55-6.85l4.67-2.58 9.51 5A.45.45 0 0 0 40 58a.44.44 0 0 0-.16-.62l-4.26-2.47L44.36 50v12.56zm18.63 3.17v1.76l-5.84 3.23H26c0-1.7 0-3.36-.1-5zM21.91 40.14a.67.67 0 0 1-.66.66h-6.39a.68.68 0 0 1-.66-.7.67.67 0 0 1 .66-.66h6.39a.68.68 0 0 1 .66.7zm-7.19 20.54a8.7 8.7 0 0 0 1 2 8.85 8.85 0 0 0 1.48 1.71l.33.26v3a9.51 9.51 0 0 0-.68-1.24 8.58 8.58 0 0 0-1.49-1.71 4.55 4.55 0 0 0-.89-.63 4.43 4.43 0 0 0 .24 1.06 8.33 8.33 0 0 0 1 2 8.56 8.56 0 0 0 1.5 1.87l.33.26v1.51h-1.2A17.46 17.46 0 0 1 12 57.59a81.79 81.79 0 0 1 2.55-15 .59.59 0 0 1 .59-.43H21a.59.59 0 0 1 .59.44c1.57 5.79 3 16.1 3.06 28.16h-5.98v-1.55L19 69a8.56 8.56 0 0 0 1.48-1.71 8.33 8.33 0 0 0 1-2 4.43 4.43 0 0 0 .24-1.06 4.55 4.55 0 0 0-.89.63 8.58 8.58 0 0 0-1.49 1.71 9.51 9.51 0 0 0-.68 1.24v-3l.33-.26a8.85 8.85 0 0 0 1.48-1.71 8.7 8.7 0 0 0 1-2 4.45 4.45 0 0 0 .24-1.07 4.93 4.93 0 0 0-.89.64A8.31 8.31 0 0 0 19.35 62a8.91 8.91 0 0 0-.68 1.24 21 21 0 0 0-.24-3.08 10.83 10.83 0 0 0-.32-1.41 9.78 9.78 0 0 0-.33 1.41 21 21 0 0 0-.24 3.08 8.91 8.91 0 0 0-.68-1.24 8.31 8.31 0 0 0-1.49-1.71 4.93 4.93 0 0 0-.89-.64 4.45 4.45 0 0 0 .24 1.03zm6.21 13.73a18.1 18.1 0 0 1-3.25-2.33h18.38l-9.67 5.34zm24.32 13.44L27.79 78.2l11.08-6.12 6.34-3.51 6.35 3.51 11.15 6.12zm24.32-13.44l-5.45 3-9.67-5.34h18.38a17.83 17.83 0 0 1-3.26 2.34zm9-16.82a17.46 17.46 0 0 1-4.35 13.13H73v-1.51a3.33 3.33 0 0 0 .32-.26 8.91 8.91 0 0 0 2.5-3.74 5.12 5.12 0 0 0 .24-1.06 4.55 4.55 0 0 0-.89.63 8.58 8.58 0 0 0-1.49 1.71 9.51 9.51 0 0 0-.68 1.24v-3c.1-.08.21-.16.32-.26a8.54 8.54 0 0 0 1.49-1.71 8.7 8.7 0 0 0 1-2 5.13 5.13 0 0 0 .24-1.07 4.93 4.93 0 0 0-.89.64A8.31 8.31 0 0 0 73.7 62a8.91 8.91 0 0 0-.7 1.2 21 21 0 0 0-.24-3.08 9.78 9.78 0 0 0-.33-1.41 9.13 9.13 0 0 0-.32 1.41 19.67 19.67 0 0 0-.24 3.08 8.91 8.91 0 0 0-.66-1.2 8.31 8.31 0 0 0-1.49-1.71 5.37 5.37 0 0 0-.89-.64 4.45 4.45 0 0 0 .24 1.07 9 9 0 0 0 1 2 9.23 9.23 0 0 0 1.49 1.71l.33.26v3a9.51 9.51 0 0 0-.68-1.24 8.58 8.58 0 0 0-1.49-1.71 4.92 4.92 0 0 0-.89-.63 4.43 4.43 0 0 0 .24 1.06 8.64 8.64 0 0 0 1 2A8.91 8.91 0 0 0 71.56 69l.33.26v1.51h-6c0-12.06 1.49-22.37 3.06-28.16a.59.59 0 0 1 .59-.44h5.84a.59.59 0 0 1 .59.43 82.68 82.68 0 0 1 2.55 14.99zM68.6 40.1a.67.67 0 0 1 .66-.66h6.38a.68.68 0 0 1 .67.7.67.67 0 0 1-.67.66h-6.38a.68.68 0 0 1-.66-.7zM78.83 34a5.57 5.57 0 0 1-5.47 4.08h-1.81A5.59 5.59 0 0 1 66.08 34zM79 1.36v4.12c-1.86.21-5.44 1.46-5.44 7.89a15.81 15.81 0 0 0 .33 3.05 32.79 32.79 0 0 0-3-4.31 10.76 10.76 0 0 1 2.71-6.88l1.11-1.15h-13.5a33.21 33.21 0 0 0-6.6-2.72zm-9.32 9.41a33.58 33.58 0 0 0-6.26-5.33h8.22a12.18 12.18 0 0 0-1.93 5.33zM77 29.41c.12 1 .18 1.94.21 2.92v.27h-9.53a22.44 22.44 0 0 0-44.86 0h-9.51a2.44 2.44 0 0 0 0-.27c0-1 .09-2 .21-2.92a32 32 0 0 1 63.44 0zM20.79 10.77a12.17 12.17 0 0 0-1.95-5.33h8.22a33.64 33.64 0 0 0-6.27 5.33zm-9.31-9.41H35.9a33 33 0 0 0-6.6 2.72H15.8l1.11 1.15a10.7 10.7 0 0 1 2.66 6.88 33.7 33.7 0 0 0-3 4.31 16.64 16.64 0 0 0 .33-3.05c0-6.43-3.58-7.68-5.44-7.89zm37.89 76.36a5.25 5.25 0 0 0-2.48-.83l-1-.1-1-.07-1.3-.09a4.07 4.07 0 0 1-.78-.18 1 1 0 0 1-.46-.27.45.45 0 0 1-.13-.34.55.55 0 0 1 .23-.44 2 2 0 0 1 .82-.35 6.3 6.3 0 0 1 1.42-.14 7.5 7.5 0 0 1 1.9.24 8.94 8.94 0 0 1 1.87.71l.15.07 1.15-1.27-.21-.15a8.37 8.37 0 0 0-4.75-1.3 7.69 7.69 0 0 0-2.4.33 3.34 3.34 0 0 0-1.57 1 2.27 2.27 0 0 0-.5 1.46 2 2 0 0 0 .49 1.41 2.76 2.76 0 0 0 1.38.73 13.36 13.36 0 0 0 2.29.32H45c.9 0 1.58.11 2 .18a2 2 0 0 1 1 .36.67.67 0 0 1 .29.62.88.88 0 0 1-.29.64 2.15 2.15 0 0 1-1 .46 6.36 6.36 0 0 1-1.64.18 8 8 0 0 1-2.16-.29 8.46 8.46 0 0 1-2-.9l-.2-.09L40 81l.17.13a6.24 6.24 0 0 0 2.26 1.13 11.11 11.11 0 0 0 3 .36 8.59 8.59 0 0 0 2.57-.36 3.57 3.57 0 0 0 1.69-1 2.52 2.52 0 0 0 .58-1.68 2.16 2.16 0 0 0-.9-1.86zM36 76.84A1.14 1.14 0 1 0 37.09 78 1.14 1.14 0 0 0 36 76.84zm18.59 0A1.14 1.14 0 1 0 55.68 78a1.14 1.14 0 0 0-1.13-1.16zm8.21-61.07l2.46-2.58.72.69.9-.71-2.53-2.41-.67.93.73.7L61.92 15zm7.66 10.52a1.14 1.14 0 1 0 1.13-1.13 1.14 1.14 0 0 0-1.17 1.13zm-42.5-10.7l-1.24-1.35 1.19-1.09 1.24 1.35.86-.79-3.18-3.47-.87.79 1.18 1.28-1.23 1.09-1.17-1.28-.87.79 3.18 3.47zm38.75 5.22l3-1.87.52.85 1.06-.46-1.84-3-.89.73.53.85-3 1.88zm-10-9.42a2.41 2.41 0 0 0 3.31-1 2.32 2.32 0 0 0-1.06-3.27 2.33 2.33 0 0 0-3.29 1 2.41 2.41 0 0 0 .97 3.27zm0-2.74a1.24 1.24 0 1 1 2.2 1.14 1.23 1.23 0 0 1-1.7.56 1.21 1.21 0 0 1-.53-1.7zM19 25.16a1.14 1.14 0 1 0 1.14 1.13A1.14 1.14 0 0 0 19 25.16zm16.58-14.72L35 9.55l-1.22.6-.34-.68 1.21-.6-.48-1-1.21.6-.31-.62 1.22-.61-.34-1-2.41 1.2 2.09 4.21zm15.21-1.31l.72.15.06-1.16-.48-.12a1.14 1.14 0 0 1-.93-1.43 1.12 1.12 0 0 1 1.39-.95l.49.1.37-1.09-.72-.14A2.22 2.22 0 0 0 49 6.37a2.23 2.23 0 0 0 1.79 2.76zM22 17.09l-.88-.74-1.84 3 1.05.46.53-.85 3 1.87.62-1-3-1.88zM42.85 6.4l.76.45c.21.12.38.24.39.39s-.16.21-.45.23l-1.27.07-.1 1.12 1.5-.09c1-.05 1.57-.55 1.52-1.41A1.31 1.31 0 0 0 44.52 6l-.75-.45c-.21-.12-.37-.24-.38-.39s.15-.22.45-.23L45 4.9l.1-1.11-1.36.07c-1 .06-1.57.56-1.52 1.42a1.31 1.31 0 0 0 .63 1.12zm31.87 47.69h-.34a2.75 2.75 0 0 0 .19-.28 1.14 1.14 0 0 0-.42-1.55 1.16 1.16 0 0 0-1.54.42 2.6 2.6 0 0 0-.16.34c0-.11-.09-.23-.15-.34a1.17 1.17 0 0 0-1.55-.42 1.14 1.14 0 0 0-.41 1.55 2.68 2.68 0 0 0 .18.28h-.33a1.14 1.14 0 1 0 0 2.27h.33c-.06.1-.13.19-.18.28a1.14 1.14 0 0 0 .41 1.55 1.16 1.16 0 0 0 .57.15 1.13 1.13 0 0 0 1-.56c.06-.11.1-.23.15-.34a2.6 2.6 0 0 0 .16.34 1.12 1.12 0 0 0 1 .56 1.09 1.09 0 0 0 .56-.15 1.14 1.14 0 0 0 .42-1.55l-.19-.28h.34a1.14 1.14 0 0 0 0-2.27zm-3.25 1.7a1.13 1.13 0 0 1 2-1.13 1.13 1.13 0 0 1-2 1.13zm-55.35.55c-.06.1-.13.19-.18.28a1.14 1.14 0 0 0 .41 1.55 1.16 1.16 0 0 0 .57.15 1.13 1.13 0 0 0 1-.56 2.52 2.52 0 0 0 .15-.34 2.6 2.6 0 0 0 .16.34 1.12 1.12 0 0 0 1 .56 1.09 1.09 0 0 0 .56-.15 1.13 1.13 0 0 0 .42-1.55l-.21-.28h.34a1.14 1.14 0 0 0 0-2.27H20a2.75 2.75 0 0 0 .19-.28 1.13 1.13 0 0 0-.42-1.55 1.16 1.16 0 0 0-1.54.42 2.6 2.6 0 0 0-.16.34 2.52 2.52 0 0 0-.15-.34 1.17 1.17 0 0 0-1.55-.42 1.14 1.14 0 0 0-.41 1.55 1.73 1.73 0 0 0 .19.28h-.34a1.14 1.14 0 1 0 0 2.27zM19 54.66a1.14 1.14 0 0 1-2 1.13 1.14 1.14 0 0 1 2-1.13z"></path></svg>