<svg xmlns="http://www.w3.org/2000/svg" fill='#455D58' viewBox="0 0 112 65.68">
    <g>
        <g>
            <path d="M.47,44.42H4.18c1.71,0,2.51-.44,2.51-1.58,0-1-.58-1.55-1.46-2.21L3,38.88C1.55,37.78.5,36.59.5,34.54c0-2.93,2.07-4.31,5.34-4.31h3.7l-.47,2.68H6c-1.72,0-2.6.44-2.6,1.58,0,1,.6,1.52,1.49,2.21l2.24,1.74A5.3,5.3,0,0,1,9.6,42.79c0,2.93-2,4.31-5.28,4.31H0Z"></path>
            <path d="M24.36,38.61c0-5.12,3.46-8.38,8.52-8.38h2l-.47,2.68H33.1c-3.57,0-5.86,2.18-5.86,5.7s2.29,5.81,5.86,5.81h1.36l.47,2.68h-2C27.82,47.1,24.36,43.84,24.36,38.61Z"></path>
            <path d="M47.71,38.61A8.31,8.31,0,0,1,56.37,30,8.31,8.31,0,0,1,65,38.61a8.66,8.66,0,1,1-17.32,0Zm14.44,0a5.79,5.79,0,1,0-11.57,0,5.79,5.79,0,1,0,11.57,0Z"></path>
            <path d="M84.39,32.91V47.1H81.62V32.91H78l-.48-2.68H88.54l-.47,2.68Z"></path>
            <path d="M107.85,32.91V47.1h-2.77V32.91H101.4l-.47-2.68H112l-.47,2.68Z"></path>
        </g>
        <g>
            <path d="M31.59,2.68v14.2H28.82V2.68H25.14L24.67,0H35.74l-.47,2.68Z"></path>
            <path d="M60.14,9.63H52.45v7.25H49.68V0h2.77V6.94h7.69V0H62.9V16.88H60.14Z"></path>
            <path d="M79,0h8.38l-.47,2.68H81.72V6.94h5.14V9.63H81.72v4.56h5.14l.47,2.69H79Z"></path>
        </g>
        <g>
            <path d="M17.69,63.68V65.6h-.85V60.45h1.29A1.68,1.68,0,0,1,20,62.22a1.59,1.59,0,0,1-1.15,1.6l1.3,1.78h-1Zm0-2.41v2H18c.72,0,1.11-.37,1.11-1a.93.93,0,0,0-1-1Z"></path>
            <path d="M24.46,61.17h2.26l-.13.78H25.27v1h1.32v.79H25.27v1.07h1.32l.13.79H24.46Z"></path>
            <path d="M31,64.81h1c.4,0,.64-.11.64-.37s-.16-.37-.34-.51l-.68-.53A1.2,1.2,0,0,1,31,62.33c0-.78.58-1.16,1.46-1.16h1l-.13.78h-.85c-.4,0-.65.12-.65.38s.16.36.35.51l.67.52a1.27,1.27,0,0,1,.59,1.08c0,.78-.58,1.16-1.46,1.16H30.85Z"></path>
            <path d="M37.53,63.36a2.29,2.29,0,0,1,4.58,0,2.29,2.29,0,1,1-4.58,0Zm3.73,0a1.45,1.45,0,1,0-2.89,0,1.45,1.45,0,1,0,2.89,0Z"></path>
            <path d="M47.25,63.94V65.6h-.81V61.17h1.22a1.49,1.49,0,0,1,1.59,1.55,1.31,1.31,0,0,1-1,1.34l1.1,1.54h-.94Zm0-2v1.6h.27a.79.79,0,0,0,.88-.8.77.77,0,0,0-.82-.8Z"></path>
            <path d="M55,62V65.6h-.8V62h-1l-.12-.78h3L56,62Z"></path>
            <path d="M64.41,64a2.2,2.2,0,0,1,1.19-1.77l.31-.2-1.13-1.61h3.47l-.14.82H66.36l3,4.33h-1l-.51-.73-.29.22a2.51,2.51,0,0,1-1.51.59A1.61,1.61,0,0,1,64.41,64Zm2.71.39.28-.21-1-1.49-.3.2A1.42,1.42,0,0,0,65.28,64a.79.79,0,0,0,.81.81A1.54,1.54,0,0,0,67.12,64.42Z"></path>
            <path d="M77.5,64.78h1.13c.53,0,.77-.14.77-.48s-.18-.48-.45-.68l-.68-.53a1.58,1.58,0,0,1-.76-1.32c0-.9.64-1.32,1.63-1.32h1.13l-.14.82h-.95c-.52,0-.79.13-.79.48s.18.46.45.67l.69.53a1.66,1.66,0,0,1,.76,1.33c0,.89-.62,1.32-1.61,1.32H77.36Z"></path>
            <path d="M85.58,64.53V65.6h-.81V61.17h1.14a1.68,1.68,0,1,1,0,3.36Zm0-2.58v1.8h.28a.9.9,0,1,0,0-1.8Z"></path>
            <path d="M94,65H92.18l-.25.62h-.85l2-4.64,2,4.64H94.3Zm-1-2.24-.62,1.51h1.26Z"></path>
        </g>
    </g>
</svg>