<svg class="palm" xmlns="http://www.w3.org/2000/svg" viewBox="0 0 33.38 57.94">
    <path fill='#455D58' class="palm__path--trunk" stroke="none" d="M15.82 16.91l-.51.52a1 1 0 0 0-.28.53l-.4 2.4a.43.43 0 0 0 .14.43l.8.81.09 31.89A2.34 2.34 0 1 0 19 55.6a2.32 2.32 0 0 0-1.37-2.11l-.09-31.91.81-.81a.48.48 0 0 0 .13-.43l-.4-2.4a1.08 1.08 0 0 0-.27-.53l-.51-.52z"></path>
    <path fill='#455D58' class="palm__path--branches" stroke="none" d="M17.33 16.91a7.92 7.92 0 0 1 2 .17c.84.23 1.5 1.76.35 4.38a3.11 3.11 0 0 0 1.56-3.64l.18.11c.84.59.58 3.15-.32 4.58a3.12 3.12 0 0 0 1.8-3.38l.16.16c.59.92 0 3.39-1 4.62a3.52 3.52 0 0 0 2.1-3.12l.18.29c.46.91-1 3.74-1.42 4.38a4.26 4.26 0 0 0 2.25-2.69l.12.31c.31 1-.59 2.8-1.26 3.81.5 0 1.39-.95 1.84-2.06a22.11 22.11 0 0 1 .55 2.69c1.53-4.28-2.34-11.52-8.29-11.65A12 12 0 0 1 19.6 15a3.39 3.39 0 0 1 3.92 2.78v.08a3 3 0 0 0-1.7-3.71c1.26-.34 3.19 1.85 3.79 3.65a4 4 0 0 0-1.49-3.91c1.49.08 2.78 2.16 3.25 4.36a4 4 0 0 0-.9-4.11 5.62 5.62 0 0 1 .55.15c1.18.5 1.9 2.85 2.1 4.61a4.45 4.45 0 0 0-.11-3.82c.18.09.35.18.51.28 1.06.88 1.36 3 1.48 3.87a4 4 0 0 0 .16-2.74 12.14 12.14 0 0 1 2.23 2.41c-.15-2.26-4.62-6.56-10.21-6a3.75 3.75 0 0 0-3.46-1.08l.08-.11c1.85-1.35 4.55-.18 5.21.51 0-1-1.73-2.23-3.67-2.08l.2-.18a6.5 6.5 0 0 1 5.13.89c-.09-.69-1.53-2-3.53-2.12l.44-.29c1.42-.4 4 .68 4.83 1.23-.24-.81-1.74-1.84-3.2-2.17h.16c1.28-.5 3.45.33 4.45.8a4.09 4.09 0 0 0-2.62-1.7 15.89 15.89 0 0 1 3.49-.85c-2-.72-10.18 1.13-13.48 8.11v-1.12a5.2 5.2 0 0 1 3-4.36 3.22 3.22 0 0 0-3 1.37v-.36c.06-1.38 2-3.16 2.44-3.66a4.47 4.47 0 0 0-2.47 1.47c0-1.32 1.43-3.18 2.08-3.87a3.88 3.88 0 0 0-2.13 1.53v-.17c0-1 .94-2.15 1.39-3.44a5.15 5.15 0 0 0-1.46 1.48A11.94 11.94 0 0 0 16.71 0a9.62 9.62 0 0 0-.39 2.72 5 5 0 0 0-1.5-1.47c.45 1.29 1.39 2.45 1.39 3.44v.13a4 4 0 0 0-2.09-1.52c.64.68 2 2.5 2.08 3.82v.08a4.54 4.54 0 0 0-2.47-1.47c.45.5 2.34 2.25 2.44 3.62v.39a3.23 3.23 0 0 0-3-1.36 5.28 5.28 0 0 1 2.94 4.28v1.19C12.82 6.88 4.65 5 2.69 5.75a16.17 16.17 0 0 1 3.49.85 4.12 4.12 0 0 0-2.63 1.63c1-.47 3.17-1.33 4.45-.83h.17c-1.46.33-3 1.36-3.2 2.17C5.82 9.08 8.38 8 9.82 8.4l.45.29c-2.01.11-3.45 1.43-3.55 2.12a6.51 6.51 0 0 1 5.1-.89l.2.18c-2-.15-3.65 1.07-3.68 2.08.66-.69 3.36-1.86 5.21-.51a1 1 0 0 1 .08.11 3.74 3.74 0 0 0-3.46 1.08c-5.59-.52-10 3.78-10.21 6a11.84 11.84 0 0 1 2.28-2.41 4 4 0 0 0 .17 2.74c.11-.88.41-3 1.47-3.87l.55-.32a4.41 4.41 0 0 0-.15 3.82c.2-1.76.91-4.11 2.09-4.61.19-.06.37-.11.56-.15A4 4 0 0 0 6 18.21c.47-2.2 1.76-4.28 3.25-4.36a4 4 0 0 0-1.43 3.95c.61-1.83 2.54-4 3.77-3.61a3 3 0 0 0-1.77 3.71 3.41 3.41 0 0 1 3.86-2.9h.14a14.44 14.44 0 0 1 1.41.83c-6 .17-9.83 7.41-8.46 11.71a18.89 18.89 0 0 1 .56-2.69c.44 1.11 1.34 2.08 1.84 2.06-.68-1-1.58-2.85-1.27-3.81l.13-.31a4.2 4.2 0 0 0 2.25 2.69c-.46-.64-1.91-3.48-1.46-4.38.05-.1.11-.19.17-.29a3.49 3.49 0 0 0 2.11 3.12c-1-1.23-1.56-3.7-1-4.62l.16-.16a3.14 3.14 0 0 0 1.8 3.38c-.89-1.43-1.15-4-.32-4.58a1.18 1.18 0 0 1 .19-.11 3.09 3.09 0 0 0 1.56 3.64c-1.16-2.62-.5-4.15.35-4.38a8.32 8.32 0 0 1 2-.17zM11.06 13c1.85-.59 3.33-.17 3.93.71.21.39.41.8.58 1.21A11.51 11.51 0 0 0 11.06 13zm6.76 1.89a10.74 10.74 0 0 1 .58-1.18c.59-.88 2.08-1.3 3.92-.71a11.71 11.71 0 0 0-4.5 1.89z"></path>
    <path class="palm__path--s-dark-1" d="M23.58 32a12 12 0 0 0-7-2.06c-4.29 0-7 1-7 3.31 0 2.85 5.28 3 5.28 3" fill="none" stroke="#455D58" stroke-miterlimit="10" stroke-width="2.5"></path>
    <path  class="palm__path--s-dark-2" d="M16.98 36.39s7.1 0 7.1 3.47-4.52 4-7.09 4a15.23 15.23 0 0 1-8.37-2.38" fill="none" stroke="#455D58" stroke-miterlimit="10" stroke-width="2.5"></path>
</svg>